<?xml version="1.0"?>
<svg xmlns="http://www.w3.org/2000/svg" xmlns:xlink="http://www.w3.org/1999/xlink" id="Layer_1" x="0px" y="0px" width="1403.15px" height="513.07px" viewBox="0 0 1403.15 513.07" xml:space="preserve">
<g>
	<defs>
		<path id="SVGID_1_" d="M101.64,467.11v-21.983c0-10.694,0.131-18.707,0.392-24.041c0.166-3.109,0.272-5.126,0.321-6.025    c0.042-0.901,0.023-1.563-0.065-1.991h-0.125l-1.174,1.942c-0.254,0.525-0.728,1.281-1.422,2.324    c-0.688,1.021-1.114,1.73-1.291,2.066c-0.256,0.354-0.707,1.09-1.359,2.202c-0.646,1.114-1.139,1.945-1.482,2.443    c-0.867,1.473-1.382,2.372-1.546,2.727l-10.613,18.094H72.029l-10.605-18.094c-0.083-0.354-0.605-1.254-1.554-2.727    c-0.344-0.498-0.835-1.329-1.482-2.443c-0.645-1.112-1.102-1.848-1.356-2.202c-0.262-0.336-0.718-1.045-1.359-2.066    c-0.651-1.043-1.095-1.799-1.357-2.324l-1.168-1.942h-0.129c0,0.521,0,1.186,0,1.991c0,0.83,0.088,2.801,0.259,5.904    c0.263,5.241,0.393,13.255,0.393,24.046v22.1H32.335V376.6h20.429l16.941,27.412c0.599,1.042,1.353,2.3,2.258,3.746    c0.902,1.471,1.489,2.42,1.743,2.845c1.122,1.898,1.898,3.249,2.33,4.008c0.433,0.878,0.818,1.567,1.162,2.086l0.392,0.499h0.129    l0.386-0.499c0.343-0.519,0.734-1.208,1.167-2.086c0.427-0.759,1.203-2.109,2.325-4.008c0.259-0.425,0.84-1.374,1.748-2.845    c0.9-1.446,1.654-2.704,2.264-3.746l16.937-27.412h20.423v90.511H101.64L101.64,467.11z M192.666,467.11l-5.175-14.086h-35.811    l-5.176,14.086H123.23l36.079-90.369h20.56l36.203,90.369H192.666L192.666,467.11z M174.046,416.437    c-0.521-1.304-1.03-2.726-1.552-4.268c-0.083-0.261-0.516-1.686-1.293-4.27c-0.083-0.354-0.255-0.9-0.514-1.683    c-0.256-0.785-0.434-1.328-0.517-1.685l-0.391-1.425h-0.125l-0.392,1.283c-0.088,0.355-0.255,0.9-0.514,1.635    c-0.263,0.735-0.435,1.304-0.517,1.732c-0.777,2.584-1.208,4.007-1.292,4.267c-0.516,1.566-1.038,2.987-1.56,4.269l-6.455,17.598    h21.845L174.046,416.437L174.046,416.437z M270.502,434.008l20.044,33.244H266.24l-16.936-29.357h-11.127v29.357h-21.716v-90.394    h33.743c5.779,0,10.908,0.782,15.389,2.324c4.655,1.636,8.49,3.75,11.507,6.332c3.189,2.774,5.597,6,7.237,9.697    c1.726,3.892,2.585,8.113,2.585,12.688c0,6.117-1.416,11.383-4.264,15.77C279.727,428.151,275.678,431.613,270.502,434.008    L270.502,434.008z M263.917,404.012c-0.439-1.279-1.08-2.445-1.945-3.487c-0.949-1.114-2.116-1.99-3.491-2.584    c-1.548-0.689-3.237-1.044-5.046-1.044h-14.998v21.461l14.868,0.261c1.813,0,3.498-0.333,5.045-1.02    c1.381-0.616,2.543-1.471,3.491-2.587c0.949-1.042,1.594-2.202,1.945-3.509c0.427-1.448,0.647-2.702,0.647-3.745    C264.434,406.381,264.253,405.126,263.917,404.012L263.917,404.012z M364.505,450.298c-1.293,3.367-3.271,6.26-5.945,8.677    c-2.757,2.491-6.119,4.435-10.085,5.811c-3.882,1.377-8.667,2.064-14.356,2.064h-39.049v-90.51h38.925    c4.048,0,7.76,0.661,11.121,1.942c3.36,1.305,6.248,3.014,8.66,5.168c2.496,2.255,4.399,4.839,5.691,7.756    c1.292,3.037,1.939,6.14,1.939,9.318c0,2.325-0.303,4.387-0.907,6.212c-0.604,1.731-1.471,3.441-2.584,5.172    c-1.032,1.54-2.199,2.845-3.492,3.863c-1.286,1.044-2.632,1.827-4.007,2.349v0.117c2.158,0.689,4.227,1.732,6.208,3.107    c1.979,1.374,3.662,3.058,5.043,5.051c1.459,1.968,2.627,4.078,3.493,6.329c0.853,2.231,1.287,4.555,1.287,6.975    C366.444,443.422,365.796,446.954,364.505,450.298L364.505,450.298z M337.224,397.156c-1.986-1.541-4.44-2.319-7.369-2.319    h-13.059v17.071h13.059v-0.263c2.929,0,5.383-0.781,7.369-2.324c1.896-1.563,2.846-3.581,2.846-6.091    C340.07,400.738,339.121,398.724,337.224,397.156L337.224,397.156z M340.33,431.163c-2.158-1.806-5.002-2.705-8.536-2.705h-15.129    v20.416h15.129h0.13c3.699,0,6.55-0.947,8.536-2.846c2.064-1.969,3.1-4.431,3.1-7.351    C343.56,435.479,342.482,432.986,340.33,431.163L340.33,431.163z M370.582,467.11V376.6h21.727v70.213h42.794v20.298H370.582    L370.582,467.11z M504.676,446.813v20.298h-66.598V376.6h65.815v20.297H459.8v14.868h34.524v19.018H459.8v16.03H504.676    L504.676,446.813z M613.149,434.008l20.047,33.244h-24.304l-16.943-29.357h-11.132v29.357h-21.721v-90.394h33.755    c5.773,0,10.907,0.782,15.389,2.324c4.659,1.636,8.489,3.75,11.513,6.332c3.178,2.774,5.595,6,7.231,9.697    c1.731,3.892,2.585,8.113,2.585,12.688c0,6.117-1.422,11.383-4.269,15.77C622.372,428.151,618.329,431.613,613.149,434.008    L613.149,434.008z M606.557,404.012c-0.439-1.279-1.08-2.445-1.934-3.487c-0.948-1.114-2.123-1.99-3.497-2.584    c-1.554-0.689-3.236-1.044-5.039-1.044h-15.01v21.461l14.867,0.261c1.826,0,3.51-0.333,5.053-1.02    c1.374-0.616,2.536-1.471,3.484-2.587c0.949-1.042,1.601-2.202,1.945-3.509c0.426-1.448,0.64-2.702,0.64-3.745    C607.066,406.381,606.9,405.126,606.557,404.012L606.557,404.012z M704.17,446.813v20.298h-66.586V376.6h65.827v20.297h-44.105    v14.868h34.525v19.018h-34.525v16.03H704.17L704.17,446.813z M757.451,405.315c-1.114-3.961-3.201-6.948-6.214-8.938    c-2.915-1.876-6.021-2.85-9.295-2.85c-3.272,0-5.784,0.715-7.516,2.087c-1.803,1.473-2.704,3.059-2.704,4.791    c0,1.447,0.521,2.701,1.541,3.747c1.114,1.114,2.538,2.109,4.269,2.964c2.158,1.042,4.269,1.896,6.331,2.583    c2.419,0.783,5.005,1.683,7.778,2.729c3.438,1.21,6.758,2.632,9.936,4.268c3.365,1.709,6.307,3.653,8.797,5.811    c2.585,2.158,4.671,4.743,6.212,7.753c1.564,3.012,2.324,6.427,2.324,10.221c0,4.219-0.805,8.016-2.465,11.384    c-1.613,3.437-3.984,6.449-7.091,9.057c-3.036,2.488-6.781,4.48-11.264,5.929c-4.387,1.304-9.223,1.945-14.487,1.945    c-9.557,0-17.525-2.419-23.904-7.234c-6.566-5.003-11.31-11.736-14.227-20.18l20.819-5.546c0.593,1.444,1.47,3.128,2.584,5.026    c0.95,1.566,2.229,3.031,3.89,4.409c1.542,1.281,3.296,2.323,5.288,3.105c1.992,0.761,4.172,1.162,6.592,1.162    c3.889,0,6.734-0.782,8.537-2.322c1.803-1.566,2.728-3.464,2.728-5.692c0-1.896-0.665-3.413-1.945-4.528    c-1.374-1.305-3.06-2.42-5.051-3.367c-2.323-1.115-4.79-2.109-7.375-2.963c-2.489-0.783-5.5-1.826-9.034-3.107    c-2.774-1.044-5.478-2.204-8.157-3.51c-2.679-1.282-5.123-2.962-7.373-5.026c-2.23-2.088-4.057-4.528-5.432-7.376    c-1.375-2.75-2.063-6.165-2.063-10.221c0-3.438,0.854-6.805,2.586-10.076c1.73-3.272,4.054-6.117,6.971-8.537    c2.939-2.417,6.52-4.364,10.741-5.811c4.221-1.467,8.749-2.203,13.586-2.203c4.293,0,8.396,0.639,12.283,1.943    c3.961,1.282,7.447,3.012,10.458,5.168c3.106,2.159,5.739,4.766,7.896,7.876c2.324,3.294,3.96,6.566,4.909,9.839l-20.938,5.691    H757.451L757.451,405.315z M823.395,396.896v70.214h-21.719v-70.214h-27.152V376.6h76.428v20.297H823.395L823.395,396.896z     M936.93,441.262c-2.418,5.763-5.785,10.72-10.102,14.87c-4.221,4.126-9.223,7.374-14.984,9.696    c-5.788,2.23-11.856,3.368-18.236,3.368c-6.379,0-12.472-1.138-18.235-3.368c-5.595-2.322-10.551-5.57-14.867-9.696    c-4.22-4.15-7.588-9.131-10.102-15.012c-2.395-5.688-3.605-12.021-3.605-18.992l-0.378,0.262c0-6.736,1.233-13.068,3.746-19.02    c2.488-5.856,5.857-10.859,10.077-15.012c4.222-4.124,9.226-7.348,14.986-9.696c5.691-2.322,11.785-3.487,18.236-3.487    c6.473,0,12.543,1.165,18.234,3.487c5.786,2.349,10.79,5.572,15.011,9.696c4.314,4.152,7.657,9.109,10.078,14.872    c2.512,5.951,3.745,12.307,3.745,19.015C940.534,429.241,939.324,435.57,936.93,441.262L936.93,441.262z M916.751,411.646    c-1.21-3.178-2.893-5.856-5.051-8.014c-2.229-2.255-4.814-4.008-7.754-5.313c-3.012-1.278-6.38-1.94-10.077-1.94    c-3.724,0-7.044,0.662-9.96,1.94c-3.106,1.378-5.643,3.106-7.636,5.171c-2.159,2.251-3.795,4.931-4.908,8.014    c-1.115,3.036-1.683,6.474-1.683,10.363l-0.262,0.262c0,3.698,0.616,7.135,1.827,10.339c1.113,3.104,2.75,5.763,4.907,8.014    c1.969,2.064,4.529,3.795,7.636,5.169c3.012,1.305,6.33,1.944,9.935,1.944c3.795,0,7.161-0.64,10.101-1.944    c2.919-1.305,5.503-3.058,7.755-5.313c2.159-2.134,3.843-4.814,5.053-8.014c1.184-3.178,1.8-6.614,1.8-10.337    C918.434,418.12,917.863,414.658,916.751,411.646L916.751,411.646z M999.768,434.008l20.038,33.244H995.5l-16.953-29.357h-11.123    v29.357h-21.72v-90.394h33.742c5.785,0,10.908,0.782,15.389,2.324c4.672,1.636,8.491,3.75,11.526,6.332    c3.177,2.774,5.595,6,7.23,9.697c1.731,3.892,2.585,8.113,2.585,12.688c0,6.117-1.422,11.383-4.269,15.77    C1008.992,428.151,1004.938,431.613,999.768,434.008L999.768,434.008z M993.176,404.012c-0.45-1.279-1.09-2.445-1.943-3.487    c-0.949-1.114-2.111-1.99-3.511-2.584c-1.542-0.689-3.224-1.044-5.026-1.044h-15.01v21.461l14.866,0.261    c1.827,0,3.512-0.333,5.054-1.02c1.373-0.616,2.534-1.471,3.484-2.587c0.947-1.042,1.612-2.202,1.942-3.509    c0.429-1.448,0.642-2.702,0.642-3.745C993.674,406.381,993.508,405.126,993.176,404.012L993.176,404.012z M1083.427,467.11    l-5.169-14.086h-35.831l-5.168,14.086h-23.264l36.067-90.369h20.559l36.208,90.369H1083.427L1083.427,467.11z M1064.788,416.437    c-0.497-1.304-1.021-2.726-1.541-4.268c-0.096-0.261-0.521-1.686-1.281-4.27c-0.095-0.354-0.259-0.9-0.521-1.683    c-0.262-0.785-0.426-1.328-0.521-1.685l-0.405-1.425h-0.117l-0.38,1.283c-0.096,0.355-0.26,0.9-0.521,1.635    c-0.262,0.735-0.427,1.304-0.521,1.732c-0.783,2.584-1.21,4.007-1.281,4.267c-0.521,1.566-1.043,2.987-1.564,4.269l-6.473,17.598    h21.863L1064.788,416.437L1064.788,416.437z M1147.545,396.896v70.214h-21.721v-70.214h-27.15V376.6h76.424v20.297H1147.545    L1147.545,396.896z M1176.782,467.11V376.6h21.721v90.511H1176.782L1176.782,467.11z M1293.282,441.262    c-2.42,5.763-5.786,10.72-10.104,14.87c-4.22,4.126-9.224,7.374-14.986,9.696c-5.784,2.23-11.856,3.368-18.234,3.368    s-12.448-1.138-18.234-3.368c-5.596-2.322-10.552-5.57-14.868-9.696c-4.222-4.15-7.588-9.131-10.078-15.012    c-2.418-5.688-3.629-12.021-3.629-18.992l-0.378,0.262c0-6.736,1.232-13.068,3.746-19.02c2.491-5.856,5.857-10.859,10.078-15.012    c4.222-4.124,9.225-7.348,15.012-9.696c5.691-2.322,11.76-3.487,18.212-3.487c6.472,0,12.543,1.165,18.233,3.487    c5.784,2.349,10.787,5.572,15.009,9.696c4.315,4.152,7.659,9.109,10.079,14.872c2.513,5.951,3.746,12.307,3.746,19.015    C1296.886,429.241,1295.677,435.57,1293.282,441.262L1293.282,441.262z M1273.102,411.646c-1.209-3.178-2.893-5.856-5.05-8.014    c-2.229-2.255-4.813-4.008-7.755-5.313c-3.012-1.278-6.378-1.94-10.077-1.94s-7.02,0.662-9.959,1.94    c-3.106,1.378-5.645,3.106-7.635,5.171c-2.159,2.251-3.795,4.931-4.908,8.014c-1.116,3.036-1.685,6.474-1.685,10.363l-0.26,0.262    c0,3.698,0.615,7.135,1.824,10.339c1.113,3.104,2.752,5.763,4.909,8.014c1.968,2.064,4.529,3.795,7.611,5.169    c3.035,1.305,6.354,1.944,9.959,1.944c3.794,0,7.161-0.64,10.101-1.944c2.917-1.305,5.503-3.058,7.756-5.313    c2.157-2.134,3.816-4.814,5.026-8.014c1.21-3.178,1.825-6.614,1.825-10.337C1274.785,418.12,1274.219,414.658,1273.102,411.646    L1273.102,411.646z M1363.091,467.513l-18.493-25.085c-2.066-2.849-4.271-5.955-6.594-9.32c-2.325-3.369-4.53-6.476-6.592-9.297    c-0.69-0.972-1.612-2.252-2.777-3.89c-1.161-1.636-1.966-2.748-2.392-3.367l-2.063-2.843h-0.144v2.467v6.968v10.602v13.584v19.921    h-21.721v-90.394h20.44l19.255,25.874c2.324,3.177,4.15,5.688,5.43,7.49c0.523,0.784,1.541,2.206,3.038,4.271    c1.516,2.061,2.652,3.649,3.437,4.789c1.636,2.395,3.437,4.909,5.43,7.492l2.323,3.107h0.143v-2.847v-7.374v-10.34V397.3v-20.7    h21.722v90.913H1363.091L1363.091,467.513z"/>
	</defs>
	<use xlink:href="#SVGID_1_" fill="#FFFFFF"/>
	<clipPath id="SVGID_2_">
		<use xlink:href="#SVGID_1_"/>
	</clipPath>
	<g transform="matrix(1 0 0 1 -7.123069e-006 -2.793251e-006)" clip-path="url(#SVGID_2_)">
		
			<image width="545" height="261" xlink:href="134A4AAD.jpg" transform="matrix(2.9138 0 0 2.9138 -112.9868 -154.3882)">
		</image>
	</g>
</g>
<g>
	<defs>
		<path id="SVGID_3_" d="M503.015,213.244c-2.133-7.565-6.069-13.231-11.809-17.002c-5.584-3.605-11.5-5.407-17.73-5.407    c-6.237,0-10.996,1.303-14.282,3.935c-3.443,2.8-5.163,5.811-5.163,9.107c0,2.797,0.979,5.168,2.952,7.138    c2.13,2.134,4.837,4.03,8.122,5.667c4.103,1.968,8.127,3.606,12.064,4.931c4.601,1.47,9.521,3.178,14.773,5.168    c6.568,2.302,12.875,5.005,18.958,8.111c6.402,3.295,11.986,6.97,16.74,11.073c4.921,4.127,8.858,9.036,11.821,14.774    c2.953,5.763,4.435,12.235,4.435,19.469c0,8.039-1.565,15.245-4.684,21.647c-3.119,6.569-7.635,12.307-13.54,17.238    c-5.75,4.771-12.888,8.536-21.423,11.336c-8.37,2.467-17.56,3.676-27.577,3.676c-18.211,0-33.394-4.577-45.534-13.778    c-12.479-9.508-21.508-22.312-27.086-38.416l39.643-10.572c1.144,2.798,2.786,5.999,4.919,9.604    c1.802,2.938,4.263,5.736,7.387,8.369c2.957,2.465,6.312,4.436,10.089,5.902c3.775,1.472,7.961,2.207,12.55,2.207    c7.397,0,12.804-1.471,16.265-4.435c3.439-2.939,5.17-6.543,5.17-10.812c0-3.605-1.232-6.498-3.699-8.632    c-2.632-2.467-5.833-4.578-9.604-6.402c-4.434-2.111-9.105-4.008-14.032-5.643c-4.766-1.496-10.503-3.464-17.232-5.93    c-5.253-1.966-10.427-4.174-15.513-6.637c-5.086-2.469-9.764-5.668-14.033-9.605c-4.269-3.936-7.713-8.606-10.339-14.038    c-2.626-5.239-3.936-11.716-3.936-19.443c0-6.57,1.636-12.972,4.92-19.208c3.277-6.237,7.712-11.644,13.291-16.243    c5.577-4.599,12.395-8.274,20.439-11.074c8.039-2.798,16.659-4.172,25.847-4.172c8.216,0,16.006,1.208,23.393,3.674    c7.54,2.468,14.191,5.739,19.941,9.84c5.904,4.103,10.908,9.106,15.009,15.035c4.436,6.237,7.554,12.474,9.368,18.709    l-39.885,10.837H503.015L503.015,213.244z M658.12,330.904v-66.965h-64.498v66.965h-41.355V158.585h41.355v66.705h64.498v-66.705    h41.354v172.319H658.12L658.12,330.904z M795.747,197.238v133.666h-41.356V197.238h-51.716v-38.653h145.499v38.653H795.747    L795.747,197.238z M1011.908,281.679c-4.6,11.002-11.002,20.438-19.206,28.313c-8.038,7.874-17.571,14.038-28.574,18.471    c-10.978,4.246-22.55,6.38-34.714,6.38c-12.143,0-23.713-2.134-34.69-6.38c-10.695-4.433-20.11-10.597-28.314-18.471    c-8.063-7.874-14.464-17.406-19.206-28.55c-4.601-10.838-6.9-22.909-6.9-36.211l-0.735,0.498c0-12.804,2.371-24.873,7.138-36.184    c4.767-11.169,11.168-20.679,19.206-28.575c8.04-7.871,17.549-14.013,28.551-18.447c10.837-4.435,22.407-6.663,34.714-6.663    s23.878,2.228,34.715,6.663c11.005,4.435,20.513,10.576,28.55,18.447c8.204,7.896,14.607,17.336,19.208,28.314    c4.767,11.334,7.137,23.403,7.137,36.207C1018.785,258.771,1016.486,270.842,1011.908,281.679L1011.908,281.679z M973.494,225.29    c-2.301-6.071-5.5-11.145-9.604-15.271c-4.268-4.244-9.199-7.612-14.771-10.078c-5.738-2.465-12.142-3.699-19.208-3.699    c-7.042,0-13.373,1.234-18.946,3.699c-5.905,2.632-10.766,5.905-14.534,9.841c-4.104,4.269-7.211,9.367-9.345,15.272    c-2.134,5.737-3.2,12.306-3.2,19.703l-0.497,0.474c0,7.07,1.137,13.637,3.437,19.706c2.134,5.905,5.265,11.002,9.367,15.272    c3.771,3.936,8.608,7.206,14.512,9.84c5.763,2.466,12.07,3.7,18.97,3.7c7.209,0,13.611-1.234,19.207-3.7    c5.573-2.466,10.481-5.833,14.772-10.101c4.079-4.104,7.306-9.179,9.582-15.249c2.298-6.092,3.461-12.637,3.461-19.706    C976.696,237.596,975.629,231.051,973.494,225.29L973.494,225.29z M1144.842,331.665l-35.215-47.782    c-3.936-5.406-8.109-11.312-12.542-17.713c-4.435-6.402-8.607-12.307-12.569-17.736c-1.303-1.804-3.058-4.269-5.287-7.375    c-2.205-3.131-3.723-5.265-4.551-6.401l-3.938-5.43h-0.261v4.694v13.279v20.202v25.849v37.916h-41.355V159.061h38.913    l36.683,49.25c4.435,6.073,7.873,10.839,10.338,14.276c0.974,1.471,2.917,4.196,5.788,8.135c2.869,3.936,5.048,6.969,6.521,9.103    c3.104,4.601,6.567,9.345,10.337,14.276l4.434,5.903h0.238v-5.406V240.56v-19.704v-22.882v-39.389h41.354v173.08H1144.842    L1144.842,331.665z M1203.696,212.012v-53.427h38.627v53.427H1203.696L1203.696,212.012z M1345.733,213.244    c-2.135-7.565-6.069-13.231-11.831-17.002c-5.575-3.605-11.478-5.407-17.713-5.407c-6.237,0-11.004,1.303-14.275,3.935    c-3.439,2.8-5.17,5.811-5.17,9.107c0,2.797,0.972,5.168,2.938,7.138c2.135,2.134,4.84,4.03,8.135,5.667    c4.103,1.968,8.134,3.606,12.069,4.931c4.574,1.47,9.509,3.178,14.771,5.168c6.546,2.302,12.876,5.005,18.947,8.111    c6.404,3.295,11.977,6.97,16.742,11.073c4.932,4.127,8.869,9.036,11.831,14.774c2.942,5.763,4.437,12.235,4.437,19.469    c0,8.039-1.567,15.245-4.697,21.647c-3.104,6.569-7.636,12.307-13.54,17.238c-5.737,4.771-12.874,8.536-21.412,11.336    c-8.369,2.467-17.57,3.676-27.577,3.676c-18.211,0-33.409-4.577-45.553-13.778c-12.471-9.508-21.507-22.312-27.078-38.416    l39.647-10.572c1.136,2.798,2.773,5.999,4.906,9.604c1.805,2.938,4.269,5.736,7.399,8.369c2.965,2.465,6.31,4.436,10.079,5.902    c3.794,1.472,7.967,2.207,12.567,2.207c7.398,0,12.805-1.471,16.242-4.435c3.464-2.939,5.169-6.543,5.169-10.812    c0-3.605-1.235-6.498-3.676-8.632c-2.632-2.467-5.831-4.578-9.603-6.402c-4.437-2.111-9.127-4.008-14.036-5.643    c-4.769-1.496-10.508-3.464-17.239-5.93c-5.241-1.966-10.437-4.174-15.508-6.637c-5.1-2.469-9.771-5.668-14.039-9.605    c-4.27-3.936-7.706-8.606-10.339-14.038c-2.632-5.239-3.938-11.716-3.938-19.443c0-6.57,1.637-12.972,4.935-19.208    c3.272-6.237,7.707-11.644,13.278-16.243c5.574-4.599,12.401-8.274,20.44-11.074c8.038-2.798,16.671-4.172,25.846-4.172    c8.202,0,16.008,1.208,23.38,3.674c7.566,2.468,14.202,5.739,19.967,9.84c5.904,4.103,10.905,9.106,15.009,15.035    c4.435,6.237,7.543,12.474,9.369,18.709l-39.908,10.837H1345.733L1345.733,213.244z"/>
	</defs>
	<use xlink:href="#SVGID_3_" fill="#FFFFFF"/>
	<clipPath id="SVGID_4_">
		<use xlink:href="#SVGID_3_"/>
	</clipPath>
	<g transform="matrix(1 0 0 1 -7.123069e-006 -2.793251e-006)" clip-path="url(#SVGID_4_)">
		
			<image width="545" height="261" xlink:href="134A4AAE.jpg" transform="matrix(2.9138 0 0 2.9138 -112.9868 -154.3882)">
		</image>
	</g>
</g>
<path fill="#FFFFFF" d="M367.873,272.703L239.813,50.931c-7.356-12.78-21.133-20.724-35.889-20.724  c-7.237,0-14.393,1.919-20.677,5.56c-6.419,3.699-11.57,8.974-15.169,15.223l-11.952,20.667l75.649,131.012h-79.058l-58.54,101.395  c-5.857,10.146-18.899,13.633-29.047,7.776c-10.162-5.869-13.652-18.896-7.791-29.06l98.709-170.979l-11.549-20L39.889,272.703  c-11.402,19.775-4.613,45.147,15.163,56.589c6.508,3.76,13.622,5.525,20.641,5.525c14.322,0,28.272-7.409,35.937-20.688  l52.725-91.329h102.319L185.529,82.27c-5.856-10.163-2.365-23.204,7.784-29.062c3.237-1.885,6.907-2.869,10.61-2.869  c7.588,0,14.661,4.092,18.456,10.659l128.047,221.784c5.881,10.163,2.372,23.19-7.79,29.06c-3.236,1.885-6.906,2.847-10.612,2.847  c-7.599,0-14.665-4.057-18.447-10.623l-22.338-38.701H163.104l-11.619,20.131h128.124l16.539,28.635  c7.375,12.77,21.11,20.713,35.877,20.713c7.244,0,14.395-1.933,20.684-5.55C372.496,317.851,379.283,292.479,367.873,272.703z"/>
</svg>
